# xmcd
#
# Track frame offsets:
#	150
#	17447
#	51115
#	71790
#	88521
#	110914
#	132079
#	156133
#	172494
#	195656
#	211780
#	228650
#	253223
#	293328
#
# Disc length: 4514 seconds
# Revision: 0
# Processed by: cddbd v1.5.2PL0 Copyright (c) Steve Scherf et al.
# Submitted via: dBpowerAMP V12.0
#
DISCID=ca11a00e
DTITLE=Hot Buttered Rum - Live in the Sierra
DYEAR=2012
DGENRE=Americana
TTITLE0=Fruit of the Vine
TTITLE1=Squall
TTITLE2=Way Back When
TTITLE3=Blue Moon Stars
TTITLE4=Banished Set
TTITLE5=Beyond the Sky
TTITLE6=Ramblin Girl
TTITLE7=Be Kind Boys
TTITLE8=Like The French
TTITLE9=Loretta
TTITLE10=Cody
TTITLE11=Where the Streets Have No Name
TTITLE12=Desert Rat
TTITLE13=Lovelight
EXTD=
EXTT0=
EXTT1=
EXTT2=
EXTT3=
EXTT4=
EXTT5=
EXTT6=
EXTT7=
EXTT8=
EXTT9=
EXTT10=
EXTT11=
EXTT12=
EXTT13=
PLAYORDER=
